<svg width="24" height="21" viewBox="0 0 24 21" fill="none" xmlns="http://www.w3.org/2000/svg">
<path fill-rule="evenodd" clip-rule="evenodd" d="M17.8099 0.52131C16.7208 0.24882 15.5744 0.317363 14.5256 0.71767C13.4768 1.11798 12.5762 1.83073 11.9457 2.75954C11.3221 3.67814 10.9924 4.76423 10.9998 5.87389C9.7425 5.7794 8.51256 5.43939 7.38071 4.86969C5.95775 4.15347 4.734 3.09645 3.81846 1.79277L3.0001 2.36748L2.10568 1.92026C2.09773 1.93616 2.09023 1.95221 2.08319 1.96839L2.08023 1.97514L2.06866 2.00207C2.0592 2.02432 2.04631 2.05513 2.03054 2.09406C1.99901 2.17189 1.95587 2.28236 1.90538 2.42201C1.80452 2.70098 1.67368 3.09825 1.54758 3.58584C1.29658 4.55638 1.05781 5.90976 1.12613 7.41289C1.19466 8.92038 1.57353 10.5991 2.57716 12.1838C3.32952 13.3717 4.41169 14.4729 5.91484 15.4005C4.39647 16.1 2.72666 16.4354 1.03985 16.3683C0.577127 16.3499 0.162301 16.6516 0.0372519 17.0974C-0.0877967 17.5433 0.109649 18.0167 0.51446 18.2416C5.29097 20.8953 10.651 20.92 14.845 18.6877C19.0632 16.4425 22.0001 11.9674 22.0001 5.86748L22.0001 5.86417C21.9996 5.70191 21.9918 5.53985 21.977 5.37845C22.9426 4.30704 23.6292 3.01062 23.9717 1.6041L23.0001 1.36748L22.4237 0.550315C21.7152 1.05005 20.9449 1.45406 20.1327 1.75258C19.4724 1.16204 18.6759 0.738 17.8099 0.52131ZM3.12407 7.32207C3.07437 6.22871 3.22106 5.21245 3.40475 4.41109C4.29735 5.31996 5.33595 6.07955 6.48152 6.65616C8.19909 7.52067 10.1038 7.94698 12.026 7.89714C12.568 7.88309 13.0001 7.43966 13.0001 6.89748V5.89748H13.0002L13 5.88407C12.9905 5.17124 13.2001 4.47268 13.6005 3.88285C14.0009 3.29303 14.5727 2.8404 15.2388 2.58619C15.9048 2.33198 16.6328 2.28846 17.3244 2.4615C18.016 2.63454 18.6377 3.0158 19.1055 3.55372C19.3637 3.85051 19.7718 3.96842 20.1484 3.85501C20.3801 3.78526 20.6093 3.70853 20.8358 3.62498C20.647 3.87164 20.4407 4.10578 20.2179 4.32547C19.9803 4.55985 19.8752 4.89737 19.9379 5.22523C19.9785 5.43749 19.9993 5.65305 20.0001 5.86915C19.9996 11.2683 17.4366 15.0426 13.9053 16.9222C11.3071 18.3051 8.13037 18.6908 4.9602 17.8832C6.2343 17.5163 7.4508 16.949 8.56173 16.1949C8.86216 15.9909 9.02844 15.6402 8.99614 15.2785C8.96384 14.9169 8.73805 14.6011 8.40624 14.4537C6.31614 13.5247 5.04039 12.3351 4.2668 11.1137C3.48918 9.88586 3.18055 8.56457 3.12407 7.32207Z" fill="#C2C2C2"/>
</svg>
