<svg width="24" height="25" viewBox="0 0 24 25" fill="none" xmlns="http://www.w3.org/2000/svg">
<g clip-path="url(#clip0_813_1195)">
<path fill-rule="evenodd" clip-rule="evenodd" d="M12.0006 4.36719C12.0006 3.36719 12.0005 3.36719 12.0004 3.36719H12.0001H11.9991L11.995 3.36719L11.9797 3.3672L11.9207 3.3673C11.8691 3.36742 11.7935 3.36764 11.6969 3.3681C11.5037 3.369 11.2262 3.37081 10.888 3.37443C10.212 3.38166 9.2916 3.39613 8.31587 3.42513C7.34174 3.45408 6.30447 3.49772 5.3972 3.5639C4.5179 3.62803 3.67586 3.71842 3.14221 3.86114L3.12834 3.86496C2.48825 4.04605 1.90729 4.39285 1.44413 4.87034C0.980967 5.34782 0.652015 5.93907 0.490497 6.58438C0.485087 6.606 0.4804 6.62779 0.476446 6.64971C0.151138 8.45362 -0.00815761 10.2835 0.000556652 12.1165C-0.0106938 13.9633 0.148614 15.8072 0.476453 17.6247C0.482312 17.6572 0.489774 17.6893 0.498813 17.7211C0.67688 18.3463 1.0132 18.9151 1.47528 19.3724C1.93736 19.8297 2.50958 20.1602 3.13665 20.3317L3.13665 20.3317L3.14221 20.3332C3.67586 20.476 4.5179 20.5663 5.3972 20.6305C6.30447 20.6966 7.34174 20.7403 8.31587 20.7692C9.2916 20.7982 10.212 20.8127 10.888 20.8199C11.2262 20.8236 11.5037 20.8254 11.6969 20.8263C11.7935 20.8267 11.8691 20.827 11.9207 20.8271L11.9797 20.8272L11.995 20.8272L11.9991 20.8272H12.0001H12.0004C12.0005 20.8272 12.0006 20.8272 12.0006 19.8272C12.0006 20.8272 12.0006 20.8272 12.0007 20.8272H12.001H12.0021L12.0061 20.8272L12.0214 20.8272L12.0805 20.8271C12.1321 20.827 12.2076 20.8267 12.3042 20.8263C12.4975 20.8254 12.775 20.8236 13.1131 20.8199C13.7891 20.8127 14.7095 20.7982 15.6853 20.7692C16.6594 20.7403 17.6967 20.6966 18.6039 20.6305C19.4832 20.5663 20.3253 20.476 20.8589 20.3332L20.8728 20.3294C21.5129 20.1483 22.0939 19.8015 22.557 19.324C23.0202 18.8466 23.3491 18.2553 23.5106 17.61C23.5161 17.5884 23.5207 17.5666 23.5247 17.5446C23.8475 15.7541 24.0068 13.9379 24.0006 12.1185C24.0119 10.2715 23.8526 8.42739 23.5247 6.60967L22.5406 6.78719L23.5106 6.54438C23.3491 5.89907 23.0202 5.30782 22.557 4.83034C22.0939 4.35285 21.5129 4.00605 20.8728 3.82496C20.8612 3.82167 20.8495 3.81859 20.8378 3.81573C20.3121 3.68736 19.4773 3.60517 18.5976 3.54659C17.6921 3.48628 16.6562 3.44647 15.6827 3.42006C14.7077 3.3936 13.7878 3.3804 13.1122 3.3738C12.7742 3.3705 12.4969 3.36884 12.3038 3.36802C12.2073 3.3676 12.1318 3.3674 12.0803 3.36729L12.0213 3.3672L12.006 3.36719H12.0021H12.001H12.0007C12.0006 3.36719 12.0006 3.36719 12.0006 4.36719ZM12.0006 4.36719L12.0006 5.36719H12.0008H12.0016L12.0051 5.36719L12.0194 5.3672L12.0762 5.36729L12.2953 5.368C12.4852 5.36881 12.7588 5.37044 13.0927 5.3737C13.7608 5.38023 14.6685 5.39327 15.6285 5.41932C16.5899 5.44541 17.5965 5.48434 18.4647 5.54216C19.3432 5.60067 20.0055 5.67439 20.3455 5.75436C20.6401 5.84092 20.9075 6.00227 21.1214 6.22285C21.3326 6.44052 21.4845 6.70839 21.563 7.00095C21.8649 8.68727 22.0113 10.3978 22.0006 12.1109H22.0005L22.0006 12.1208C22.0066 13.8081 21.8602 15.4925 21.563 17.1535C21.4845 17.446 21.3326 17.7139 21.1214 17.9315C20.905 18.1547 20.6339 18.3172 20.3352 18.403C20.0065 18.4896 19.3466 18.571 18.4585 18.6358C17.592 18.699 16.5867 18.7416 15.6259 18.7701C14.6666 18.7986 13.7595 18.8129 13.0917 18.8201C12.7581 18.8236 12.4846 18.8254 12.2949 18.8263C12.2 18.8267 12.1261 18.827 12.076 18.8271L12.0193 18.8272L12.005 18.8272L12.0016 18.8272H12.0008H12.0006H12.0004H11.9996L11.9961 18.8272L11.9819 18.8272L11.9251 18.8271C11.8751 18.827 11.8011 18.8267 11.7063 18.8263C11.5165 18.8254 11.2431 18.8236 10.9094 18.8201C10.2416 18.8129 9.33455 18.7986 8.37527 18.7701C7.4144 18.7416 6.40917 18.699 5.54269 18.6358C4.65077 18.5707 3.98903 18.4889 3.66171 18.4019C3.36751 18.3209 3.09906 18.1656 2.88215 17.9509C2.6751 17.746 2.52167 17.4936 2.43505 17.2159C2.13528 15.5353 1.98983 13.8307 2.00055 12.1235H2.00061L2.00056 12.1122C1.99216 10.412 2.13864 8.71456 2.43818 7.04094C2.51667 6.74838 2.66858 6.48051 2.87971 6.26285C3.09615 6.03972 3.36722 5.87719 3.66592 5.79138C3.99469 5.70479 4.65458 5.62338 5.54269 5.5586C6.40917 5.4954 7.4144 5.4528 8.37527 5.42425C9.33455 5.39574 10.2416 5.38146 10.9094 5.37432C11.2431 5.37075 11.5165 5.36897 11.7063 5.36807C11.8011 5.36763 11.8751 5.36741 11.9251 5.3673L11.9819 5.3672L11.9961 5.36719L11.9996 5.36719L12.0004 5.36719H12.0006L12.0006 4.36719ZM10.2449 7.9779C9.93535 7.80187 9.55554 7.80372 9.24773 7.98278C8.93992 8.16183 8.75055 8.49107 8.75055 8.84717V15.3872C8.75055 15.7433 8.93992 16.0725 9.24773 16.2516C9.55554 16.4306 9.93535 16.4325 10.2449 16.2564L15.9949 12.9864C16.3075 12.8087 16.5005 12.4768 16.5005 12.1172C16.5005 11.7576 16.3075 11.4257 15.9949 11.2479L10.2449 7.9779ZM13.4777 12.1172L10.7505 13.6681V10.5663L13.4777 12.1172Z" fill="#C2C2C2"/>
</g>
<defs>
<clipPath id="clip0_813_1195">
<rect width="24" height="24" fill="white" transform="translate(0 0.367188)"/>
</clipPath>
</defs>
</svg>
